<svg width="42" height="42" viewBox="0 0 42 42" fill="none" xmlns="http://www.w3.org/2000/svg">
<g filter="url(#filter0_ddd_726_21077)">
<rect x="1" y="1" width="36" height="36" rx="18" fill="#F9FAFB"/>
<rect x="1.5" y="1.5" width="35" height="35" rx="17.5" stroke="black" stroke-opacity="0.2"/>
<g clip-path="url(#clip0_726_21077)">
<path d="M23.167 15.6667H14.8337V14.8333C14.8334 13.9095 15.1402 13.0118 15.7058 12.2813C16.2713 11.5508 17.0636 11.029 17.9581 10.798C18.8526 10.5669 19.7985 10.6396 20.6471 11.0047C21.4957 11.3698 22.1989 12.0066 22.6462 12.815C22.6993 12.9107 22.7707 12.995 22.8565 13.0631C22.9422 13.1312 23.0404 13.1817 23.1457 13.2118C23.2509 13.2419 23.3611 13.251 23.4698 13.2385C23.5786 13.2261 23.6838 13.1923 23.7795 13.1392C23.8752 13.086 23.9595 13.0146 24.0276 12.9289C24.0957 12.8432 24.1462 12.7449 24.1763 12.6396C24.2064 12.5344 24.2155 12.4243 24.203 12.3155C24.1905 12.2068 24.1568 12.1015 24.1037 12.0058C23.4772 10.8744 22.4926 9.98326 21.3045 9.47242C20.1164 8.96158 18.7923 8.86004 17.5402 9.18374C16.2881 9.50745 15.1791 10.238 14.3875 11.2607C13.5959 12.2834 13.1666 13.5401 13.167 14.8333V16.02C12.4248 16.3439 11.7931 16.8771 11.3491 17.5543C10.9051 18.2316 10.6681 19.0235 10.667 19.8333V24.8333C10.6683 25.938 11.1077 26.997 11.8888 27.7781C12.67 28.5593 13.729 28.9987 14.8337 29H23.167C24.2717 28.9987 25.3307 28.5593 26.1118 27.7781C26.8929 26.997 27.3323 25.938 27.3337 24.8333V19.8333C27.3323 18.7287 26.8929 17.6696 26.1118 16.8885C25.3307 16.1074 24.2717 15.668 23.167 15.6667ZM25.667 24.8333C25.667 25.4964 25.4036 26.1323 24.9348 26.6011C24.4659 27.0699 23.83 27.3333 23.167 27.3333H14.8337C14.1706 27.3333 13.5347 27.0699 13.0659 26.6011C12.5971 26.1323 12.3337 25.4964 12.3337 24.8333V19.8333C12.3337 19.1703 12.5971 18.5344 13.0659 18.0656C13.5347 17.5967 14.1706 17.3333 14.8337 17.3333H23.167C23.83 17.3333 24.4659 17.5967 24.9348 18.0656C25.4036 18.5344 25.667 19.1703 25.667 19.8333V24.8333Z" fill="#413F3F"/>
<path d="M19.0003 20.667C18.7793 20.667 18.5674 20.7548 18.4111 20.9111C18.2548 21.0674 18.167 21.2793 18.167 21.5003V23.167C18.167 23.388 18.2548 23.6 18.4111 23.7562C18.5674 23.9125 18.7793 24.0003 19.0003 24.0003C19.2213 24.0003 19.4333 23.9125 19.5896 23.7562C19.7459 23.6 19.8337 23.388 19.8337 23.167V21.5003C19.8337 21.2793 19.7459 21.0674 19.5896 20.9111C19.4333 20.7548 19.2213 20.667 19.0003 20.667Z" fill="#413F3F"/>
</g>
</g>
<defs>
<filter id="filter0_ddd_726_21077" x="0" y="0" width="41.5" height="41.5" filterUnits="userSpaceOnUse" color-interpolation-filters="sRGB">
<feFlood flood-opacity="0" result="BackgroundImageFix"/>
<feColorMatrix in="SourceAlpha" type="matrix" values="0 0 0 0 0 0 0 0 0 0 0 0 0 0 0 0 0 0 127 0" result="hardAlpha"/>
<feMorphology radius="1.5" operator="erode" in="SourceAlpha" result="effect1_dropShadow_726_21077"/>
<feOffset dx="3" dy="3"/>
<feGaussianBlur stdDeviation="1.5"/>
<feComposite in2="hardAlpha" operator="out"/>
<feColorMatrix type="matrix" values="0 0 0 0 0.286275 0 0 0 0 0.207843 0 0 0 0 0.113725 0 0 0 0.06 0"/>
<feBlend mode="normal" in2="BackgroundImageFix" result="effect1_dropShadow_726_21077"/>
<feColorMatrix in="SourceAlpha" type="matrix" values="0 0 0 0 0 0 0 0 0 0 0 0 0 0 0 0 0 0 127 0" result="hardAlpha"/>
<feMorphology radius="0.5" operator="erode" in="SourceAlpha" result="effect2_dropShadow_726_21077"/>
<feOffset dx="1" dy="1"/>
<feGaussianBlur stdDeviation="0.5"/>
<feComposite in2="hardAlpha" operator="out"/>
<feColorMatrix type="matrix" values="0 0 0 0 0.286275 0 0 0 0 0.207843 0 0 0 0 0.113725 0 0 0 0.06 0"/>
<feBlend mode="normal" in2="effect1_dropShadow_726_21077" result="effect2_dropShadow_726_21077"/>
<feColorMatrix in="SourceAlpha" type="matrix" values="0 0 0 0 0 0 0 0 0 0 0 0 0 0 0 0 0 0 127 0" result="hardAlpha"/>
<feMorphology radius="1" operator="dilate" in="SourceAlpha" result="effect3_dropShadow_726_21077"/>
<feOffset/>
<feComposite in2="hardAlpha" operator="out"/>
<feColorMatrix type="matrix" values="0 0 0 0 0.286275 0 0 0 0 0.207843 0 0 0 0 0.113725 0 0 0 0.02 0"/>
<feBlend mode="normal" in2="effect2_dropShadow_726_21077" result="effect3_dropShadow_726_21077"/>
<feBlend mode="normal" in="SourceGraphic" in2="effect3_dropShadow_726_21077" result="shape"/>
</filter>
<clipPath id="clip0_726_21077">
<rect width="20" height="20" fill="white" transform="translate(9 9)"/>
</clipPath>
</defs>
</svg>
